<svg id="Layer_1" data-name="Layer 1" xmlns="http://www.w3.org/2000/svg" viewBox="0 0 980.43 980.43"><defs><style>.cls-1{font-size:61.45px;font-family:Arial-BoldMT, Arial;font-weight:700;letter-spacing:-0.02em;}.cls-1,.cls-3{fill:#292b3c;}.cls-2{font-size:40.28px;letter-spacing:-0.02em;}.cls-4{fill:#ed3e32;}</style></defs><text class="cls-1" transform="translate(373.33 527.59)">trendtraffic<tspan class="cls-2" x="311.09" y="0">.co.in</tspan></text><path class="cls-3" d="M309.25,558.69a33,33,0,0,0,6.09-.54,55.9,55.9,0,0,1-11.77,1.27c-28.59,0-48-22.75-43.25-50.82,3.24-19.33,17.05-36.13,34.66-44.73v14.58H288.3v11.62H295V538a70.65,70.65,0,0,0,.47,10.27,13.48,13.48,0,0,0,2.06,5.68,10.31,10.31,0,0,0,4.63,3.43A18.31,18.31,0,0,0,309.25,558.69Z"/><path class="cls-4" d="M361.69,484.39l-20.51-11.85v5.91H309.61V458.89a54.84,54.84,0,0,1,11-1.12C340.29,457.77,355.59,468.53,361.69,484.39Z"/><path class="cls-4" d="M363.87,508.6c-3.74,22.31-21.57,41.27-43.09,48.1l-1.27-11.48a19.12,19.12,0,0,1-5.85,1.39,4.14,4.14,0,0,1-2.47-.72A3.21,3.21,0,0,1,309.9,544a53.13,53.13,0,0,1-.29-7.85V490.07h31.57v6.16l20.51-11.84A45.89,45.89,0,0,1,363.87,508.6Z"/></svg>