<svg xmlns="http://www.w3.org/2000/svg" viewBox="0 0 416.68 86.53"><defs><style>.cls-1{font-size:46.17px;font-family:Arial-BoldMT, Arial;font-weight:700;}.cls-1,.cls-3{fill:#292b3c;}.cls-2{font-size:30.26px;}.cls-4{fill:#ed3e32;}</style></defs><title>smallAsset 7</title><g id="Layer_2" data-name="Layer 2"><g id="Layer_1-2" data-name="Layer 1"><text class="cls-1" transform="translate(93.95 57.54)">trendtraffic<tspan class="cls-2" x="243.7" y="0">.co.in</tspan></text><path class="cls-3" d="M42.25,85.9a27.73,27.73,0,0,0,5.18-.46,46.65,46.65,0,0,1-10,1.09C13.08,86.53-3.41,67.16.6,43.26,3.36,26.82,15.11,12.51,30.1,5.2V17.61H24.41v9.88H30.1V68.3A60.85,60.85,0,0,0,30.5,77a11.54,11.54,0,0,0,1.75,4.83,8.77,8.77,0,0,0,4,2.92A15.53,15.53,0,0,0,42.25,85.9Z"/><path class="cls-4" d="M86.89,22.66,69.43,12.58v5H42.55V1A47.53,47.53,0,0,1,51.93,0C68.67,0,81.69,9.16,86.89,22.66Z"/><path class="cls-4" d="M88.74,43.26c-3.18,19-18.36,35.14-36.68,40.95L51,74.44a16.09,16.09,0,0,1-5,1.18A3.52,3.52,0,0,1,43.9,75a2.76,2.76,0,0,1-1.1-1.58,45,45,0,0,1-.25-6.68V27.49H69.43v5.25L86.89,22.66A39,39,0,0,1,88.74,43.26Z"/></g></g></svg>