<svg xmlns="http://www.w3.org/2000/svg" viewBox="0 0 322.72 55.52"><defs><style>.cls-1{font-size:37.43px;font-family:Arial-BoldMT, Arial;font-weight:700;}.cls-1,.cls-3{fill:#292b3c;}.cls-2{font-size:24.54px;letter-spacing:0em;}.cls-4{fill:#ed3e32;}</style></defs><title>smallAsset 6</title><g id="Layer_2" data-name="Layer 2"><g id="Layer_1-2" data-name="Layer 1"><text class="cls-1" transform="translate(61.06 39.33)">trendtraffic<tspan class="cls-2" x="197.59" y="0">.co.in</tspan></text><path class="cls-3" d="M27.11,55.12a17.78,17.78,0,0,0,3.33-.3,30.15,30.15,0,0,1-6.43.7C8.39,55.52-2.19,43.09.39,27.76,2.16,17.21,9.69,8,19.31,3.33v8H15.66v6.34h3.65V43.82a38.34,38.34,0,0,0,.26,5.61,7.37,7.37,0,0,0,1.12,3.1,5.6,5.6,0,0,0,2.54,1.87A10,10,0,0,0,27.11,55.12Z"/><path class="cls-4" d="M55.75,14.54,44.55,8.07V11.3H27.3V.61a30.36,30.36,0,0,1,6-.61C44.06,0,52.42,5.88,55.75,14.54Z"/><path class="cls-4" d="M56.94,27.76C54.9,40,45.16,50.3,33.41,54l-.7-6.27a10.19,10.19,0,0,1-3.2.76,2.28,2.28,0,0,1-1.34-.39,1.77,1.77,0,0,1-.71-1,28.91,28.91,0,0,1-.16-4.29V17.64H44.55V21l11.2-6.46A25.11,25.11,0,0,1,56.94,27.76Z"/></g></g></svg>