<svg id="Layer_1" data-name="Layer 1" xmlns="http://www.w3.org/2000/svg" viewBox="0 0 690.38 690.38"><defs><style>.cls-1{font-size:61.45px;font-family:Arial-BoldMT, Arial;font-weight:700;letter-spacing:-0.02em;}.cls-1,.cls-3{fill:#292b3c;}.cls-2{font-size:40.28px;letter-spacing:-0.02em;}.cls-4{fill:#ed3e32;}</style></defs><text class="cls-1" transform="translate(201.76 364.19)">trendtraffic<tspan class="cls-2" x="311.09" y="0">.co.in</tspan></text><path class="cls-3" d="M137.67,395.28a33.12,33.12,0,0,0,6.1-.54A55.32,55.32,0,0,1,132,396c-28.59,0-48-22.76-43.25-50.83,3.24-19.32,17-36.12,34.66-44.72v14.58h-6.69v11.61h6.69V374.6a72.81,72.81,0,0,0,.46,10.27,13.51,13.51,0,0,0,2.06,5.67,10.2,10.2,0,0,0,4.64,3.43A18.23,18.23,0,0,0,137.67,395.28Z"/><path class="cls-4" d="M190.11,321,169.6,309.14v5.91H138V295.48a55.65,55.65,0,0,1,11-1.11C168.71,294.37,184,305.13,190.11,321Z"/><path class="cls-4" d="M192.29,345.19c-3.74,22.31-21.57,41.28-43.09,48.1l-1.26-11.48a19,19,0,0,1-5.86,1.4,4.21,4.21,0,0,1-2.46-.72,3.22,3.22,0,0,1-1.3-1.86,53,53,0,0,1-.29-7.84V326.66H169.6v6.16L190.11,321A45.69,45.69,0,0,1,192.29,345.19Z"/></svg>