<svg xmlns="http://www.w3.org/2000/svg" viewBox="0 0 120.27 116.48"><defs><style>.cls-1{fill:#292b3c;}.cls-2{fill:#ed3e32;}</style></defs><title>trendtrafficAsset 5</title><g id="Layer_2" data-name="Layer 2"><g id="Layer_1-2" data-name="Layer 1"><path class="cls-1" d="M56.87,115.64a37.07,37.07,0,0,0,7-.62,63.39,63.39,0,0,1-13.48,1.46c-32.76,0-55-26.07-49.56-58.24C4.52,36.1,20.34,16.84,40.52,7V23.7H32.86V37h7.66V91.94a81.76,81.76,0,0,0,.54,11.77,15.49,15.49,0,0,0,2.36,6.5,11.77,11.77,0,0,0,5.31,3.93A20.9,20.9,0,0,0,56.87,115.64Z"/><path class="cls-2" d="M117,30.5,93.46,16.93V23.7H57.28V1.28A63.57,63.57,0,0,1,69.9,0C92.44,0,110,12.33,117,30.5Z"/><path class="cls-2" d="M119.46,58.24c-4.28,25.57-24.72,47.3-49.37,55.12l-1.45-13.15a21.75,21.75,0,0,1-6.72,1.59A4.81,4.81,0,0,1,59.1,101a3.68,3.68,0,0,1-1.48-2.12c-.23-.86-.34-3.85-.34-9V37H93.46v7.06L117,30.5A52.48,52.48,0,0,1,119.46,58.24Z"/></g></g></svg>